<?xml version="1.0" encoding="utf-8"?>
<!-- Generator: Adobe Illustrator 22.0.0, SVG Export Plug-In . SVG Version: 6.00 Build 0)  -->
<svg version="1.1" id="图层_1" xmlns="http://www.w3.org/2000/svg" xmlns:xlink="http://www.w3.org/1999/xlink" x="0px" y="0px"
	 viewBox="0 0 200 200" style="enable-background:new 0 0 200 200;" xml:space="preserve">
<style type="text/css">
	.st0{fill:#FFFFFF;}
</style>
<g>
	<rect x="16.5" y="18.5" width="91" height="171"/>
	<path d="M107,19v170H17V19H107 M108,18H16v172h92V18L108,18z"/>
</g>
<g>
	<rect x="28" y="131.5" class="st0" width="69" height="39"/>
	<path d="M96.5,132v38h-68v-38H96.5 M97.5,131h-70v40h70V131L97.5,131z"/>
</g>
<g>
	<rect x="27.5" y="38.5" class="st0" width="69" height="14"/>
	<path d="M96,39v13H28V39H96 M97,38H27v15h70V38L97,38z"/>
</g>
<g>
	<rect x="27.5" y="85.5" class="st0" width="69" height="14"/>
	<path d="M96,86v13H28V86H96 M97,85H27v15h70V85L97,85z"/>
</g>
<g>
	<rect x="113.5" y="67.5" width="67" height="121"/>
	<path d="M180,68v120h-66V68H180 M181,67h-68v122h68V67L181,67z"/>
</g>
<g>
	<rect x="122" y="83.7" class="st0" width="50.7" height="22.8"/>
	<path d="M172.2,84.2V106h-49.7V84.2H172.2 M173.2,83.2h-51.7V107h51.7V83.2L173.2,83.2z"/>
</g>
<g>
	<rect x="121.6" y="161.7" class="st0" width="50.7" height="9.6"/>
	<path d="M171.9,162.2v8.6h-49.7v-8.6H171.9 M172.9,161.2h-51.7v10.6h51.7V161.2L172.9,161.2z"/>
</g>
<g>
	<rect x="121.6" y="144.7" class="st0" width="50.7" height="9.6"/>
	<path d="M171.9,145.2v8.6h-49.7v-8.6H171.9 M172.9,144.2h-51.7v10.6h51.7V144.2L172.9,144.2z"/>
</g>
<g>
</g>
<g>
</g>
<g>
</g>
<g>
</g>
<g>
</g>
<g>
</g>
<g>
</g>
<g>
</g>
<g>
</g>
<g>
</g>
<g>
</g>
<g>
</g>
<g>
</g>
<g>
</g>
<g>
</g>
</svg>
