<?xml version="1.0" encoding="utf-8"?>
<!-- Generator: Adobe Illustrator 22.0.0, SVG Export Plug-In . SVG Version: 6.00 Build 0)  -->
<svg version="1.1" id="图层_1" xmlns="http://www.w3.org/2000/svg" xmlns:xlink="http://www.w3.org/1999/xlink" x="0px" y="0px"
	 viewBox="0 0 200 200" style="enable-background:new 0 0 200 200;" xml:space="preserve">
<style type="text/css">
	.st0{fill:#FFFFFF;}
</style>
<g>
	<rect x="53.8" y="16.7" width="101.5" height="172.6"/>
	<path d="M154.5,17.4v171.1h-100V17.4H154.5 M156,16H53v174h103V16L156,16z"/>
</g>
<g>
	<rect x="66.6" y="39.8" class="st0" width="76.8" height="32.5"/>
	<path d="M142.7,40.5v31.1H67.4V40.5H142.7 M144.2,39.1H65.9V73h78.3V39.1L144.2,39.1z"/>
</g>
<g>
	<rect x="66" y="151.1" class="st0" width="76.8" height="13.7"/>
	<path d="M142.2,151.8V164H66.9v-12.3H142.2 M143.7,150.4H65.4v15.1h78.3V150.4L143.7,150.4z"/>
</g>
<g>
	<rect x="66" y="126.8" class="st0" width="76.8" height="13.7"/>
	<path d="M142.2,127.5v12.3H66.9v-12.3H142.2 M143.7,126.1H65.4v15.1h78.3V126.1L143.7,126.1z"/>
</g>
</svg>
